<svg xmlns="http://www.w3.org/2000/svg" width="126.113" height="126.171" viewBox="0 0 126.113 126.171">
    <defs>
        <style>
            .cls-1{fill:#fff}
        </style>
    </defs>
    <circle cx="50%" cy="50%" r="50%" fill="#0056ae" />
    <g id="Group_5" data-name="Group 5" transform="translate(110.755 102.39)">
        <path id="Path_3" d="M0 0c1.533-1.091 2.6-1.779 3.39-2.244Q2.621-1.185 1.811-.163A39.93 39.93 0 0 0-.594 1.464c-.954.7-1.389 1.015-2.714 2.044-1.272 1.005-5.144 4.064-9.426 8.156-.285.275-.664.643-.947.921-1.251 1.248-2.111 2.17-2.744 2.9a63.472 63.472 0 0 1-8.99 4.23 64.847 64.847 0 0 1 7.677-8.2l2.557.2A164.692 164.692 0 0 1 .528-1.5zm10.956-16.015q-.424 1.072-.884 2.122a48.792 48.792 0 0 0-7.93 5.1A194.44 194.44 0 0 0-3.083-4.8c-2.436 1.945-9.849 7.856-18.137 15.7-.557.532-1.3 1.242-1.852 1.778-4.912 4.831-7.143 7.432-8.139 8.914a62.924 62.924 0 0 1-8.783 1.722c1.251-2 4.543-5.937 13.18-14.075l2.832.936A313.806 313.806 0 0 1 2.434-12.12l-.117 1.677c4.832-3.518 7.288-4.995 8.639-5.572m3.852-14.369c-.1.731-.24 1.462-.372 2.194-1.6.686-4.93 2.578-12.22 8.092a320.273 320.273 0 0 0-7.34 5.727C-8.529-11.618-18.891-3.24-30.609 7.7c-.793.747-1.849 1.742-2.637 2.494-8.237 7.946-11.4 11.657-12.6 13.556a62.823 62.823 0 0 1-8.726-.355c1.563-2.372 5.857-7.38 18.019-18.665l2.992 1.578C-21.534-4.814-9.654-14.9 1.746-23.65l.263 1.782c6.6-4.953 10.529-7.575 12.8-8.516m-80.942 51.409a63.91 63.91 0 0 1-2.58-.86c1.954-2.588 7.189-8.265 22.113-21.876L-43.548.43c14.46-13.18 28.66-25.31 42.2-36.054l.611 1.814c8.359-6.509 13.207-9.944 15.915-11.262.068.743.135 1.487.177 2.235-1.94.863-6.087 3.471-15.527 10.848-3.081 2.423-4.628 3.639-9 7.2-4.161 3.427-16.835 13.851-31.34 27.189-.988.915-2.3 2.133-3.286 3.051-8.965 8.459-14.423 14.088-16.52 17.049a64.06 64.06 0 0 1-5.815-1.474m-7.959-3.046a62.9 62.9 0 0 1-7.764-4.253c2.381-2.646 8.445-8.658 25.185-23.637l3.029 2.653c16.17-14.5 31.962-28.1 46.939-40.412l.951 1.809C5.03-54.6 9.859-58.146 12.12-59.5c.243.718.48 1.437.7 2.164-2.1 1.181-6.7 4.389-17.669 13.288a881.596 881.596 0 0 0-10.154 8.361c-4.7 3.945-19.02 15.949-35.591 30.929-1.134 1.03-2.647 2.4-3.779 3.438-10.574 9.72-17.081 16.09-19.719 19.299m-12.58-7.679a62.8 62.8 0 0 1-6.765-6.165C-90.7 1.62-84.105-4.289-66.5-19.722l2.929 3.13A4515.131 4515.131 0 0 1-14.24-59.425l1.277 1.745C-1.61-67.3 3.376-71.363 5.644-73.079c.414.656.821 1.315 1.211 1.985-2.114 1.53-6.874 5.284-18.59 15.172a2126.38 2126.38 0 0 0-10.767 9.146C-27.536-42.463-42.857-29.341-60.6-13.6c-1.229 1.094-2.868 2.55-4.095 3.644C-76.281.4-83.53 7.081-86.672 10.3m-9.767-85.638q-3.471 2.67-5.736 4.169a62.657 62.657 0 0 1 7.186-9.94c.248-.194.481-.372.742-.579l-.368 2.442a167.448 167.448 0 0 0 15.5-14.038l1.579-.234c1-1.058 1.74-1.89 2.372-2.622a63.269 63.269 0 0 1 2.456-1.121c-.769.928-1.793 2.081-3.228 3.575-1.312 1.351-1.91 1.968-3.831 3.835a225.196 225.196 0 0 1-14.99 13.186c-.5.4-1.176.931-1.683 1.327m.181 10.081a120.233 120.233 0 0 1-12.117 8.677c.114-.4.213-.805.336-1.207a63.705 63.705 0 0 1 2.883-7.6A104.848 104.848 0 0 0-94.61-73.1l.353 2.852a316.648 316.648 0 0 0 25.935-23.379l1.688.188a82.315 82.315 0 0 0 6.987-7.871c.762-.148 1.525-.29 2.294-.409a77.582 77.582 0 0 1-7.582 8.529c-1.987 2-2.985 3.005-5.947 5.842C-73.727-84.659-82.38-76.478-93.7-67.3c-.766.614-1.786 1.433-2.555 2.043m2.466 10.9c-8.163 6.527-13.738 10.609-16.963 12.442a62.9 62.9 0 0 1 1.022-8.915c2.688-1.48 7.631-4.845 17.043-12.491l.987 3.121c12.847-10.57 24.52-21.03 34.692-31.091l1.733.57c5.667-5.673 9-9.323 10.631-11.669.745.036 1.493.093 2.24.156-1.345 1.958-4.386 5.483-11.139 12.137-2.607 2.551-3.915 3.832-7.762 7.448-3.664 3.409-14.813 13.785-29.228 25.635-.977.8-2.279 1.859-3.259 2.651m4.547 11.343c-10.07 8.255-16.807 13.427-20.406 15.667a62.625 62.625 0 0 1-1.078-8.812c3-1.715 9.077-5.946 21.984-16.6l1.559 3.291c15.255-12.737 29.259-25.2 41.622-37.047l1.716.92c8.526-8.226 12.216-12.253 13.788-14.324.278.08.557.147.835.232.434.133.855.287 1.284.428-1.557 2.063-5.27 6.1-14.2 14.634-3.208 3.039-4.673 4.427-9.219 8.611a1027.229 1027.229 0 0 1-34.107 29.867c-1.133.941-2.644 2.2-3.78 3.136m6.472 11.43c-11.31 9.531-18.716 15.544-22.426 18.2a63.431 63.431 0 0 1-3.1-8.4c3.124-2.014 9.856-7 25.318-20l2.08 3.358C-64-52.777-48.351-66.6-34.383-79.523l1.649 1.245C-22.69-87.583-18.293-91.969-16.4-94.155c.657.374 1.313.75 1.954 1.146C-16.219-91-20.44-86.776-31.1-76.985c-3.363 3.074-5.215 4.767-10.255 9.3-4.722 4.225-19.087 17.085-37.317 32.617-1.23 1.044-2.869 2.436-4.1 3.478m8.323 11.247C-87.943-8.632-94.434-3.04-97.419-.5a63.283 63.283 0 0 1-5.114-7.649c3.051-2.319 10-7.938 27-22.527l2.572 3.345c18.224-15.753 34.309-29.844 49.175-43.078l1.53 1.556C-11.138-78.705-6.321-83.076-4.2-85.091a63.698 63.698 0 0 1 1.681 1.646c-1.95 1.8-6.491 5.872-18.222 16.2q-5.4 4.746-10.8 9.481C-36.194-53.691-50.349-41.293-70.24-24l-4.21 3.657" class="cls-1" data-name="Path 3"/>
    </g>
</svg>
