<svg viewBox="0 0 237 237" fill="none" xmlns="http://www.w3.org/2000/svg">
  <path
    d="M207.684 192.005C210.559 189.959 212.56 188.669 214.041 187.797C213.08 189.121 212.093 190.422 211.08 191.699C209.54 192.661 208.036 193.679 206.57 194.75C204.781 196.063 203.965 196.654 201.481 198.583C199.095 200.468 191.835 206.204 183.805 213.878C183.271 214.393 182.56 215.083 182.029 215.605C179.683 217.945 178.071 219.674 176.884 221.043C171.48 224.123 165.843 226.776 160.025 228.975C164.37 223.443 169.187 218.298 174.421 213.598L179.216 213.973C188.511 205.108 198.349 196.832 208.674 189.192L207.684 192.005ZM228.229 161.973C227.699 163.313 227.146 164.64 226.571 165.952C221.317 168.653 216.337 171.856 211.701 175.516C208.393 177.956 205.126 180.453 201.903 183.004C197.335 186.651 183.434 197.736 167.892 212.445C166.847 213.443 165.454 214.774 164.419 215.779C155.208 224.838 151.024 229.716 149.157 232.495C143.75 233.961 138.246 235.04 132.687 235.724C135.032 231.974 141.206 224.591 157.402 209.33L162.713 211.085C178.444 196.25 194.981 182.292 212.248 169.277L212.029 172.422C221.09 165.825 225.695 163.055 228.229 161.973ZM235.452 135.028C235.265 136.399 235.002 137.769 234.755 139.142C231.754 140.429 225.51 143.976 211.839 154.316C207.2 157.829 202.611 161.41 198.075 165.056C191.69 170.218 172.259 185.929 150.285 206.444C148.798 207.845 146.818 209.711 145.341 211.121C129.894 226.022 123.963 232.981 121.713 236.542C116.25 236.7 110.782 236.477 105.35 235.876C108.281 231.428 116.333 222.037 139.139 200.875L144.75 203.834C167.303 182.978 189.581 164.064 210.958 147.656L211.451 150.997C223.828 141.709 231.194 136.792 235.452 135.028ZM83.6703 231.432C82.0463 230.928 80.4333 230.391 78.8322 229.819C82.4964 224.966 92.3132 214.32 120.299 188.796L126.022 192.811C153.138 168.096 179.766 145.349 205.156 125.202L206.302 128.603C221.977 116.397 231.068 109.956 236.146 107.484C236.274 108.878 236.399 110.273 236.478 111.676C232.84 113.294 225.063 118.185 207.361 132.018C201.584 136.562 198.683 138.842 190.484 145.52C182.682 151.946 158.915 171.494 131.715 196.505C129.862 198.221 127.402 200.505 125.553 202.227C108.742 218.089 98.507 228.645 94.5747 234.198C90.8987 233.447 87.2599 232.523 83.6703 231.432ZM68.7454 225.722C63.7111 223.408 58.846 220.743 54.1862 217.746C58.6511 212.784 70.0224 201.51 101.414 173.421L107.094 178.396C137.416 151.205 167.029 125.702 195.114 102.615L196.898 106.007C217.116 89.6173 226.172 82.9677 230.412 80.4286C230.867 81.7751 231.312 83.1234 231.724 84.4866C227.786 86.7013 219.16 92.717 198.591 109.405C192.205 114.584 185.858 119.81 179.55 125.084C170.737 132.481 143.883 154.992 112.809 183.083C110.683 185.014 107.846 187.583 105.723 189.53C85.8943 207.757 73.6922 219.704 68.7454 225.722ZM45.1552 211.32C40.651 207.78 36.4112 203.916 32.4694 199.759C37.6018 195.043 49.9689 183.962 82.9821 155.022L88.4746 160.891C119.116 133.894 149.952 107.12 180.981 80.5693L183.376 83.8416C204.665 65.8018 214.015 58.1828 218.268 54.9649C219.044 56.195 219.807 57.4308 220.539 58.6872C216.574 61.5563 207.648 68.5959 185.678 87.1382C178.929 92.8328 172.199 98.5498 165.488 104.289C156.048 112.377 127.318 136.984 94.0459 166.502C91.7412 168.553 88.6677 171.284 86.3668 173.335C64.6406 192.755 51.0471 205.283 45.1552 211.32ZM26.84 50.7287C22.5007 54.0667 18.9153 56.6726 16.0837 58.5466C19.9551 51.9076 24.4685 45.6644 29.559 39.9068C30.0241 39.543 30.461 39.2092 30.9504 38.821L30.2604 43.4003C40.488 35.2397 50.1955 26.4477 59.3262 17.0759L62.2872 16.6371C64.1624 14.6531 65.5501 13.0929 66.7352 11.7202C68.2552 10.9868 69.7908 10.2859 71.3407 9.61805C69.8987 11.3583 67.9785 13.5204 65.2875 16.322C62.8273 18.8554 61.7059 20.0125 58.1036 23.5135C49.1039 32.1673 39.7248 40.4176 29.9941 48.2403C29.0565 48.9904 27.7907 49.9862 26.84 50.7287ZM27.1775 69.6329C19.9473 75.5214 12.3587 80.9556 4.45551 85.9043C4.66929 85.1542 4.85493 84.3948 5.08558 83.6409C6.58245 78.7801 8.38821 74.0198 10.4918 69.3892C17.3788 64.9838 23.9842 60.1532 30.2697 54.9255L30.9317 60.2737C47.9369 46.5656 64.1729 31.9297 79.5654 16.4326L82.7308 16.7852C87.4085 12.1497 91.7849 7.21969 95.8329 2.02525C97.2618 1.74772 98.6926 1.48143 100.135 1.25828C95.7944 6.93136 91.0423 12.2771 85.9168 17.2521C82.1907 21.0026 80.3193 22.8872 74.7649 28.2072C69.4299 33.2497 53.2036 48.591 31.9762 65.8018C30.5398 66.9532 28.6271 68.489 27.185 69.6329M31.8093 90.073C16.5019 102.313 6.04757 109.967 0 113.405C0.240011 107.793 0.880456 102.207 1.91646 96.6869C6.95704 93.9116 16.2263 87.6014 33.8758 73.2634L35.7266 79.116C59.8175 59.2948 81.7069 39.6799 100.782 20.8132L104.031 21.8821C114.658 11.2439 120.908 4.39929 123.967 0C125.364 0.0675083 126.767 0.174393 128.167 0.292533C125.645 3.96423 119.943 10.5744 107.279 23.0522C102.391 27.8359 99.9378 30.2381 92.7238 37.0189C85.853 43.4116 64.9462 62.869 37.915 85.0905C36.0829 86.5907 33.6414 88.5765 31.8037 90.0617M40.3303 111.332C21.4468 126.812 8.81351 136.511 2.06461 140.712C1.00072 135.258 0.325207 129.736 0.0431349 124.187C5.66878 120.971 17.0645 113.037 41.2679 93.0583L44.1914 99.2297C72.7978 75.3449 99.0583 51.9739 122.242 29.758L125.459 31.4833C141.448 16.0576 148.367 8.50604 151.315 4.62244C151.836 4.77246 152.359 4.8981 152.881 5.05749C153.695 5.3069 154.484 5.59569 155.289 5.8601C152.369 9.7287 145.406 17.299 128.66 33.3022C122.645 39.0011 119.898 41.6039 111.373 49.4498C90.4681 68.5873 69.1436 87.261 47.4148 105.457C45.2902 107.222 42.4568 109.583 40.3265 111.338M52.4629 132.772C31.2542 150.645 17.3664 161.921 10.4093 166.901C8.10298 161.794 6.16041 156.53 4.59615 151.149C10.4543 147.373 23.0783 138.023 52.0729 113.645L55.9733 119.942C87.6701 93.0358 117.015 67.1145 143.208 42.8809L146.301 45.2156C165.135 27.7665 173.381 19.5418 176.93 15.4425C178.162 16.1439 179.393 16.8489 180.595 17.5915C177.27 21.3589 169.355 29.2799 149.365 47.6402C143.058 53.4047 139.585 56.5795 130.134 65.0799C121.28 73.0027 94.3421 97.1182 60.1569 126.244C57.8504 128.202 54.7769 130.812 52.4685 132.766M68.076 153.857C42.7718 175.818 30.5998 186.304 25.0023 191.067C21.4618 186.525 18.2567 181.731 15.4124 176.724C21.1337 172.375 34.1646 161.838 66.0432 134.48L70.8663 140.753C105.04 111.212 135.203 84.7886 163.08 59.9718L165.949 62.8896C186.798 44.4148 195.831 36.2182 199.808 32.4396C200.878 33.449 201.929 34.4781 202.96 35.5262C199.304 38.9017 190.788 46.5376 168.79 65.905C162.039 71.8382 155.289 77.7646 148.538 83.684C139.812 91.3219 113.269 114.571 75.9688 146.999L68.076 153.857Z"
    fill="white"
  />
</svg>
