<svg viewBox="0 0 24 25" fill="currentColor" xmlns="http://www.w3.org/2000/svg">
  <path
    d="M21.0777 19.4865C21.3695 19.2788 21.5725 19.1479 21.7229 19.0594C21.6253 19.1938 21.5251 19.3258 21.4224 19.4554C21.2661 19.5531 21.1134 19.6564 20.9647 19.7651C20.7831 19.8983 20.7003 19.9583 20.4482 20.1541C20.2061 20.3454 19.4692 20.9275 18.6543 21.7063C18.6 21.7586 18.5279 21.8287 18.474 21.8816C18.2359 22.1191 18.0723 22.2946 17.9518 22.4335C17.4034 22.7461 16.8313 23.0153 16.2409 23.2385C16.6818 22.6771 17.1707 22.1549 17.7019 21.6779L18.1886 21.716C19.1318 20.8163 20.1303 19.9763 21.1782 19.201L21.0777 19.4865ZM23.1628 16.4385C23.109 16.5746 23.0529 16.7092 22.9946 16.8424C22.4613 17.1165 21.9559 17.4415 21.4854 17.813C21.1496 18.0607 20.8181 18.314 20.491 18.5729C20.0274 18.9431 18.6166 20.0681 17.0392 21.5609C16.9332 21.6622 16.7918 21.7973 16.6868 21.8993C15.752 22.8187 15.3274 23.3137 15.1378 23.5958C14.5891 23.7445 14.0305 23.8541 13.4663 23.9235C13.7044 23.5429 14.3309 22.7936 15.9746 21.2448L16.5136 21.4229C18.1101 19.9173 19.7885 18.5008 21.5409 17.1798L21.5187 17.499C22.4383 16.8295 22.9057 16.5484 23.1628 16.4385ZM23.8959 13.7039C23.8769 13.843 23.8502 13.9821 23.8251 14.1214C23.5206 14.252 22.8869 14.6121 21.4995 15.6615C21.0286 16.018 20.5629 16.3814 20.1025 16.7514C19.4545 17.2754 17.4825 18.8698 15.2524 20.9519C15.1015 21.0941 14.9005 21.2834 14.7505 21.4265C13.1829 22.9388 12.5809 23.6451 12.3526 24.0065C11.7981 24.0225 11.2432 23.9999 10.6919 23.9389C10.9893 23.4875 11.8065 22.5344 14.1212 20.3867L14.6906 20.687C16.9795 18.5703 19.2404 16.6507 21.41 14.9855L21.4601 15.3246C22.7161 14.382 23.4637 13.883 23.8959 13.7039ZM8.49165 23.4879C8.32683 23.4368 8.16313 23.3822 8.00063 23.3242C8.37251 22.8316 9.36881 21.7512 12.2091 19.1608L12.7899 19.5683C15.5418 17.0599 18.2443 14.7514 20.8212 12.7066L20.9375 13.0519C22.5283 11.8131 23.4509 11.1594 23.9663 10.9085C23.9793 11.0499 23.992 11.1915 24 11.3339C23.6308 11.4981 22.8416 11.9945 21.045 13.3984C20.4586 13.8596 20.1642 14.091 19.3322 14.7687C18.5403 15.4209 16.1282 17.4048 13.3677 19.9432C13.1797 20.1174 12.93 20.3492 12.7423 20.5239C11.0362 22.1338 9.99741 23.205 9.59832 23.7686C9.22525 23.6924 8.85596 23.5986 8.49165 23.4879ZM6.97693 22.9083C6.466 22.6736 5.97224 22.4031 5.49933 22.0989C5.95247 21.5954 7.10654 20.4512 10.2924 17.6004L10.8689 18.1053C13.9463 15.3458 16.9517 12.7575 19.802 10.4143L19.983 10.7586C22.035 9.0952 22.954 8.42034 23.3843 8.16265C23.4306 8.2993 23.4757 8.43614 23.5176 8.5745C23.1179 8.79926 22.2424 9.4098 20.1549 11.1034C19.5068 11.629 18.8626 12.1594 18.2224 12.6947C17.328 13.4454 14.6026 15.73 11.4489 18.5809C11.2331 18.777 10.9452 19.0377 10.7297 19.2352C8.71736 21.0851 7.47898 22.2976 6.97693 22.9083ZM4.58278 21.4467C4.12565 21.0875 3.69535 20.6953 3.2953 20.2734C3.81619 19.7948 5.07131 18.6702 8.4218 15.733L8.97923 16.3287C12.089 13.5889 15.2186 10.8715 18.3676 8.17693L18.6107 8.50903C20.7713 6.67819 21.7202 5.90494 22.1519 5.57835C22.2306 5.7032 22.3081 5.82862 22.3823 5.95613C21.98 6.24731 21.0741 6.96176 18.8444 8.84361C18.1594 9.42154 17.4764 10.0018 16.7953 10.5842C15.8372 11.4051 12.9214 13.9024 9.54466 16.8982C9.31076 17.1064 8.99883 17.3835 8.76532 17.5917C6.56033 19.5626 5.18074 20.8341 4.58278 21.4467ZM2.72397 5.14843C2.28358 5.48719 1.9197 5.75167 1.63233 5.94186C2.02523 5.26807 2.48329 4.63445 2.99993 4.05012C3.04713 4.01319 3.09147 3.97932 3.14114 3.93992L3.07111 4.40467C4.1091 3.57645 5.09431 2.68416 6.02098 1.73302L6.32149 1.68848C6.5118 1.48713 6.65264 1.32879 6.77291 1.18948C6.92718 1.11504 7.08302 1.04391 7.24033 0.976131C7.09398 1.15274 6.89909 1.37218 6.62599 1.65651C6.3763 1.91363 6.26249 2.03105 5.8969 2.38637C4.98352 3.26464 4.03165 4.10196 3.04408 4.89588C2.94892 4.97201 2.82046 5.07306 2.72397 5.14843ZM2.75823 7.067C2.02444 7.66462 1.25428 8.21614 0.452187 8.71838C0.473883 8.64225 0.492724 8.56517 0.516133 8.48867C0.668048 7.99534 0.851314 7.51223 1.06481 7.04226C1.76376 6.59517 2.43414 6.10492 3.07206 5.57436L3.13924 6.11714C4.86509 4.72592 6.51287 3.24053 8.07505 1.66774L8.3963 1.70352C8.87104 1.23307 9.31519 0.732722 9.72603 0.205542C9.87105 0.177375 10.0163 0.150349 10.1626 0.127702C9.72212 0.70346 9.23983 1.246 8.71964 1.75091C8.34149 2.13154 8.15155 2.32281 7.58784 2.86273C7.0464 3.37449 5.39961 4.93147 3.24524 6.67819C3.09946 6.79504 2.90534 6.95091 2.75899 7.067M3.22831 9.14145C1.67477 10.3836 0.613764 11.1605 0 11.5094C0.0243586 10.9399 0.0893569 10.3729 0.194501 9.81269C0.706066 9.53103 1.64679 8.89061 3.43803 7.43546L3.62587 8.02943C6.07085 6.01779 8.29239 4.02709 10.2283 2.11232L10.5581 2.2208C11.6366 1.14113 12.2709 0.446481 12.5813 0C12.7231 0.00685138 12.8655 0.0176991 13.0076 0.029689C12.7516 0.402328 12.1729 1.07319 10.8877 2.33955C10.3916 2.82505 10.1426 3.06885 9.41048 3.75703C8.71317 4.40582 6.59136 6.38054 3.84797 8.63578C3.66203 8.78803 3.41424 8.98958 3.22774 9.14031M4.09309 11.2991C2.17663 12.8701 0.894478 13.8544 0.209536 14.2807C0.101563 13.7273 0.0330051 13.1669 0.00437773 12.6037C0.575321 12.2773 1.73186 11.4721 4.18825 9.44443L4.48495 10.0708C7.3882 7.64671 10.0534 5.2748 12.4062 3.02012L12.7328 3.19522C14.3554 1.62968 15.0577 0.863273 15.3569 0.469128C15.4098 0.484354 15.4629 0.497105 15.5158 0.513282C15.5984 0.538594 15.6785 0.567903 15.7601 0.594738C15.4638 0.98736 14.7572 1.75567 13.0577 3.37982C12.4471 3.95819 12.1683 4.22235 11.3032 5.01863C9.18156 6.96088 7.01734 8.85606 4.8121 10.7028C4.59648 10.8819 4.30891 11.1215 4.09271 11.2996M5.32443 13.4749C3.17197 15.2888 1.7625 16.4332 1.05644 16.9387C0.822367 16.4204 0.625216 15.8862 0.46646 15.34C1.061 14.9567 2.3422 14.0078 5.28484 11.5337L5.6807 12.1728C8.89759 9.44215 11.8758 6.81141 14.5341 4.35196L14.848 4.5889C16.7595 2.81801 17.5963 1.98328 17.9566 1.56725C18.0816 1.63843 18.2064 1.70999 18.3284 1.78535C17.991 2.1677 17.1877 2.97159 15.1589 4.83498C14.5189 5.42001 14.1664 5.74222 13.2073 6.60492C12.3086 7.409 9.57473 9.85647 6.10529 12.8125C5.87121 13.0111 5.55928 13.2761 5.325 13.4744M6.90899 15.6149C4.34089 17.8437 3.10555 18.9079 2.53746 19.3913C2.17815 18.9303 1.85287 18.4438 1.5642 17.9356C2.14485 17.4942 3.46734 16.4248 6.70269 13.6483L7.19218 14.2849C10.6605 11.2869 13.7217 8.60514 16.5509 6.0865L16.8421 6.38263C18.958 4.50764 19.8747 3.67576 20.2784 3.29228C20.387 3.39472 20.4936 3.49916 20.5983 3.60554C20.2272 3.94811 19.363 4.72307 17.1304 6.68866C16.4453 7.29082 15.7601 7.89228 15.075 8.49304C14.1895 9.2682 11.4956 11.6277 7.71002 14.9189L6.90899 15.6149Z"
  />
</svg>
