<svg xmlns="http://www.w3.org/2000/svg" width="690.587" height="135.45" viewBox="0 0 690.587 135.45">
    <defs>
        <style>
            .cls-1{fill:#fff}
        </style>
    </defs>
    <g id="Group_103" data-name="Group 103" transform="translate(-339 -241.302)">
        <g id="Group_7" data-name="Group 7" transform="translate(772.876 256.239)">
            <path id="Path_5" d="M0 0a7.469 7.469 0 0 0 7.469-7.469A7.469 7.469 0 0 0 0-14.937a7.469 7.469 0 0 0-7.469 7.468A7.469 7.469 0 0 0 0 0" class="cls-1" data-name="Path 5"/>
        </g>
        <g id="Group_102" data-name="Group 102">
            <g id="Group_5" data-name="Group 5" transform="translate(449.755 352.971)">
                <path id="Path_3" d="M0 0c1.533-1.091 2.6-1.779 3.39-2.244Q2.621-1.185 1.811-.163A39.93 39.93 0 0 0-.594 1.464c-.954.7-1.389 1.015-2.714 2.044-1.272 1.005-5.144 4.064-9.426 8.156-.285.275-.664.643-.947.921-1.251 1.248-2.111 2.17-2.744 2.9a63.472 63.472 0 0 1-8.99 4.23 64.847 64.847 0 0 1 7.677-8.2l2.557.2A164.692 164.692 0 0 1 .528-1.5zm10.956-16.015q-.424 1.072-.884 2.122a48.792 48.792 0 0 0-7.93 5.1A194.44 194.44 0 0 0-3.083-4.8c-2.436 1.945-9.849 7.856-18.137 15.7-.557.532-1.3 1.242-1.852 1.778-4.912 4.831-7.143 7.432-8.139 8.914a62.924 62.924 0 0 1-8.783 1.722c1.251-2 4.543-5.937 13.18-14.075l2.832.936A313.806 313.806 0 0 1 2.434-12.12l-.117 1.677c4.832-3.518 7.288-4.995 8.639-5.572m3.852-14.369c-.1.731-.24 1.462-.372 2.194-1.6.686-4.93 2.578-12.22 8.092a320.273 320.273 0 0 0-7.34 5.727C-8.529-11.618-18.891-3.24-30.609 7.7c-.793.747-1.849 1.742-2.637 2.494-8.237 7.946-11.4 11.657-12.6 13.556a62.823 62.823 0 0 1-8.726-.355c1.563-2.372 5.857-7.38 18.019-18.665l2.992 1.578C-21.534-4.814-9.654-14.9 1.746-23.65l.263 1.782c6.6-4.953 10.529-7.575 12.8-8.516m-80.942 51.409a63.91 63.91 0 0 1-2.58-.86c1.954-2.588 7.189-8.265 22.113-21.876L-43.548.43c14.46-13.18 28.66-25.31 42.2-36.054l.611 1.814c8.359-6.509 13.207-9.944 15.915-11.262.068.743.135 1.487.177 2.235-1.94.863-6.087 3.471-15.527 10.848-3.081 2.423-4.628 3.639-9 7.2-4.161 3.427-16.835 13.851-31.34 27.189-.988.915-2.3 2.133-3.286 3.051-8.965 8.459-14.423 14.088-16.52 17.049a64.06 64.06 0 0 1-5.815-1.474m-7.959-3.046a62.9 62.9 0 0 1-7.764-4.253c2.381-2.646 8.445-8.658 25.185-23.637l3.029 2.653c16.17-14.5 31.962-28.1 46.939-40.412l.951 1.809C5.03-54.6 9.859-58.146 12.12-59.5c.243.718.48 1.437.7 2.164-2.1 1.181-6.7 4.389-17.669 13.288a881.596 881.596 0 0 0-10.154 8.361c-4.7 3.945-19.02 15.949-35.591 30.929-1.134 1.03-2.647 2.4-3.779 3.438-10.574 9.72-17.081 16.09-19.719 19.299m-12.58-7.679a62.8 62.8 0 0 1-6.765-6.165C-90.7 1.62-84.105-4.289-66.5-19.722l2.929 3.13A4515.131 4515.131 0 0 1-14.24-59.425l1.277 1.745C-1.61-67.3 3.376-71.363 5.644-73.079c.414.656.821 1.315 1.211 1.985-2.114 1.53-6.874 5.284-18.59 15.172a2126.38 2126.38 0 0 0-10.767 9.146C-27.536-42.463-42.857-29.341-60.6-13.6c-1.229 1.094-2.868 2.55-4.095 3.644C-76.281.4-83.53 7.081-86.672 10.3m-9.767-85.638q-3.471 2.67-5.736 4.169a62.657 62.657 0 0 1 7.186-9.94c.248-.194.481-.372.742-.579l-.368 2.442a167.448 167.448 0 0 0 15.5-14.038l1.579-.234c1-1.058 1.74-1.89 2.372-2.622a63.269 63.269 0 0 1 2.456-1.121c-.769.928-1.793 2.081-3.228 3.575-1.312 1.351-1.91 1.968-3.831 3.835a225.196 225.196 0 0 1-14.99 13.186c-.5.4-1.176.931-1.683 1.327m.181 10.081a120.233 120.233 0 0 1-12.117 8.677c.114-.4.213-.805.336-1.207a63.705 63.705 0 0 1 2.883-7.6A104.848 104.848 0 0 0-94.61-73.1l.353 2.852a316.648 316.648 0 0 0 25.935-23.379l1.688.188a82.315 82.315 0 0 0 6.987-7.871c.762-.148 1.525-.29 2.294-.409a77.582 77.582 0 0 1-7.582 8.529c-1.987 2-2.985 3.005-5.947 5.842C-73.727-84.659-82.38-76.478-93.7-67.3c-.766.614-1.786 1.433-2.555 2.043m2.466 10.9c-8.163 6.527-13.738 10.609-16.963 12.442a62.9 62.9 0 0 1 1.022-8.915c2.688-1.48 7.631-4.845 17.043-12.491l.987 3.121c12.847-10.57 24.52-21.03 34.692-31.091l1.733.57c5.667-5.673 9-9.323 10.631-11.669.745.036 1.493.093 2.24.156-1.345 1.958-4.386 5.483-11.139 12.137-2.607 2.551-3.915 3.832-7.762 7.448-3.664 3.409-14.813 13.785-29.228 25.635-.977.8-2.279 1.859-3.259 2.651m4.547 11.343c-10.07 8.255-16.807 13.427-20.406 15.667a62.625 62.625 0 0 1-1.078-8.812c3-1.715 9.077-5.946 21.984-16.6l1.559 3.291c15.255-12.737 29.259-25.2 41.622-37.047l1.716.92c8.526-8.226 12.216-12.253 13.788-14.324.278.08.557.147.835.232.434.133.855.287 1.284.428-1.557 2.063-5.27 6.1-14.2 14.634-3.208 3.039-4.673 4.427-9.219 8.611a1027.229 1027.229 0 0 1-34.107 29.867c-1.133.941-2.644 2.2-3.78 3.136m6.472 11.43c-11.31 9.531-18.716 15.544-22.426 18.2a63.431 63.431 0 0 1-3.1-8.4c3.124-2.014 9.856-7 25.318-20l2.08 3.358C-64-52.777-48.351-66.6-34.383-79.523l1.649 1.245C-22.69-87.583-18.293-91.969-16.4-94.155c.657.374 1.313.75 1.954 1.146C-16.219-91-20.44-86.776-31.1-76.985c-3.363 3.074-5.215 4.767-10.255 9.3-4.722 4.225-19.087 17.085-37.317 32.617-1.23 1.044-2.869 2.436-4.1 3.478m8.323 11.247C-87.943-8.632-94.434-3.04-97.419-.5a63.283 63.283 0 0 1-5.114-7.649c3.051-2.319 10-7.938 27-22.527l2.572 3.345c18.224-15.753 34.309-29.844 49.175-43.078l1.53 1.556C-11.138-78.705-6.321-83.076-4.2-85.091a63.698 63.698 0 0 1 1.681 1.646c-1.95 1.8-6.491 5.872-18.222 16.2q-5.4 4.746-10.8 9.481C-36.194-53.691-50.349-41.293-70.24-24l-4.21 3.657" class="cls-1" data-name="Path 3"/>
            </g>
            <g id="Group_6" data-name="Group 6" transform="translate(521.452 296.961)">
                <path id="Path_4" d="M0 0a8.39 8.39 0 0 1-2.8-2.046 9.7 9.7 0 0 1-1.872-3.129 11.2 11.2 0 0 1-.679-3.972v-.16a10.866 10.866 0 0 1 .679-3.932A9.8 9.8 0 0 1-2.8-16.328 8.39 8.39 0 0 1 0-18.374a8.251 8.251 0 0 1 3.435-.726 8.307 8.307 0 0 1 6.31 2.728A9.911 9.911 0 0 1 12.3-9.307v.16a10.019 10.019 0 0 1-2.555 7.141A8.3 8.3 0 0 1 3.435.722 8.251 8.251 0 0 1 0 0m-20.355 25.354H-5.03V7.221a27.383 27.383 0 0 0 2.321 2.367 13.851 13.851 0 0 0 2.882 2.006 16.993 16.993 0 0 0 3.562 1.364 17.328 17.328 0 0 0 4.441.522 17.671 17.671 0 0 0 7.324-1.565 17.851 17.851 0 0 0 6.083-4.493A22.261 22.261 0 0 0 25.744.281a27.213 27.213 0 0 0 1.561-9.508v-.161a26.631 26.631 0 0 0-1.561-9.387 21.487 21.487 0 0 0-4.2-7.061 18.485 18.485 0 0 0-6.123-4.453A17.674 17.674 0 0 0 8.1-31.854a15.859 15.859 0 0 0-4.361.562 15.078 15.078 0 0 0-3.526 1.484 16.131 16.131 0 0 0-2.842 2.127 27.258 27.258 0 0 0-2.4 2.567v-5.777h-15.326zm54.239-12.837h15.325V-.963q0-7.54 3.209-11.072t9.228-3.531h1.283v-16.047q-5.457-.24-8.665 2.407a17.89 17.89 0 0 0-5.055 7.061v-8.746H33.884zM86.839-.234a9.713 9.713 0 0 1-2.929-2.109 9.3 9.3 0 0 1-1.925-3.063 10.206 10.206 0 0 1-.685-3.741v-.159a10.526 10.526 0 0 1 .642-3.66 9.483 9.483 0 0 1 1.808-3.064 8.278 8.278 0 0 1 2.85-2.07 9.113 9.113 0 0 1 3.771-.756 8.526 8.526 0 0 1 3.691.8 9.723 9.723 0 0 1 2.929 2.108 9.351 9.351 0 0 1 1.925 3.064 10.23 10.23 0 0 1 .682 3.74v.159a10.569 10.569 0 0 1-.641 3.661 9.528 9.528 0 0 1-1.806 3.064A8.287 8.287 0 0 1 94.3-.194a9.113 9.113 0 0 1-3.77.756 8.523 8.523 0 0 1-3.691-.8M100 11.755a23.929 23.929 0 0 0 7.62-4.895 22.313 22.313 0 0 0 5.015-7.221 21.71 21.71 0 0 0 1.805-8.786v-.16a21.859 21.859 0 0 0-1.765-8.746 21.51 21.51 0 0 0-4.975-7.141 24.409 24.409 0 0 0-7.582-4.854 24.883 24.883 0 0 0-9.588-1.806 25.171 25.171 0 0 0-9.63 1.806 23.916 23.916 0 0 0-7.623 4.894 22.34 22.34 0 0 0-5.015 7.221 21.724 21.724 0 0 0-1.805 8.786v.161a21.837 21.837 0 0 0 1.767 8.745A21.89 21.89 0 0 0 73.2 6.94a23.436 23.436 0 0 0 7.581 4.86 25.4 25.4 0 0 0 9.588 1.765 25.205 25.205 0 0 0 9.631-1.81m36.664-17.171a7.9 7.9 0 0 1-2.487-5.977v-.161a8.031 8.031 0 0 1 2.487-6.018 8.848 8.848 0 0 1 6.419-2.407 8.829 8.829 0 0 1 6.339 2.367 7.907 7.907 0 0 1 2.487 5.978v.16a8.035 8.035 0 0 1-2.487 6.018 8.74 8.74 0 0 1-6.339 2.407 8.93 8.93 0 0 1-6.419-2.367m17.01 29.366a19.266 19.266 0 0 0 7.623-4.533 17.488 17.488 0 0 0 4.252-7.1 33.488 33.488 0 0 0 1.364-10.23v-32.978h-15.245v5.135a24.635 24.635 0 0 0-5.616-4.332 16.216 16.216 0 0 0-8.024-1.766 18.677 18.677 0 0 0-7.181 1.405 17.828 17.828 0 0 0-5.977 4.011 19.207 19.207 0 0 0-4.092 6.379 22.289 22.289 0 0 0-1.525 8.425v.16a21.975 21.975 0 0 0 1.525 8.385 18.974 18.974 0 0 0 4.132 6.339 18.031 18.031 0 0 0 6.1 4.011 19.888 19.888 0 0 0 7.5 1.4 14.932 14.932 0 0 0 7.943-1.925 23.847 23.847 0 0 0 5.456-4.574v1.689q0 5.217-2.808 7.944t-8.585 2.728a27.827 27.827 0 0 1-8.024-1.084 37.294 37.294 0 0 1-7.141-3.008l-4.894 10.109a45.688 45.688 0 0 0 10.069 3.691 49.928 49.928 0 0 0 11.674 1.284 36.361 36.361 0 0 0 11.473-1.565m31.532-11.112h13.079l7.221-22.546 7.061 22.546h13.158l13.4-43.729h-14.682l-5.858 21.985-6.739-22.145h-12.6l-6.66 21.984-5.7-21.824h-14.917zm59.294-.321h15.325V-30.89H244.5zm48.22.04a15.757 15.757 0 0 0 5.617-2.768 12.7 12.7 0 0 0 3.611-4.534 14.477 14.477 0 0 0 1.283-6.3V-1.2a11.239 11.239 0 0 0-1.2-5.375 11.555 11.555 0 0 0-3.29-3.812 20.294 20.294 0 0 0-4.894-2.647q-2.809-1.083-6.018-1.966-3.45-1.043-5.255-1.805t-1.806-2.046v-.161a1.759 1.759 0 0 1 .883-1.484 4.727 4.727 0 0 1 2.648-.6 20.512 20.512 0 0 1 6.017 1.083 37.707 37.707 0 0 1 6.82 2.929l5.216-9.628a31.644 31.644 0 0 0-8.425-3.731 34.424 34.424 0 0 0-9.468-1.324 23.775 23.775 0 0 0-6.94.963 16.812 16.812 0 0 0-5.5 2.768 12.711 12.711 0 0 0-3.651 4.493 13.715 13.715 0 0 0-1.324 6.138v.16a11.6 11.6 0 0 0 1.2 5.537 11.505 11.505 0 0 0 3.295 3.808 20.281 20.281 0 0 0 4.9 2.648 51.024 51.024 0 0 0 6.012 1.882 51.06 51.06 0 0 1 5.216 1.685q1.764.721 1.765 2.006v.16q0 2.328-3.852 2.327a23.906 23.906 0 0 1-7.261-1.243 31.115 31.115 0 0 1-7.662-3.731l-5.7 9.227a32.8 32.8 0 0 0 9.789 4.854A37.208 37.208 0 0 0 285.5 13.48a26.733 26.733 0 0 0 7.221-.923m29.446-25.314a11.282 11.282 0 0 1 2.568-5.737 6.4 6.4 0 0 1 4.974-2.127 6.748 6.748 0 0 1 5.135 2.127 9.65 9.65 0 0 1 2.407 5.737zm19.939 23.91a23.458 23.458 0 0 0 7.743-6.419l-8.425-6.981a16.126 16.126 0 0 1-4.614 3.37 11.931 11.931 0 0 1-5.01 1.043A10.08 10.08 0 0 1 325.737.4a8.935 8.935 0 0 1-3.33-5.376h29.045q.08-.8.08-1.6V-8.1a30.762 30.762 0 0 0-1.323-9.107 21.789 21.789 0 0 0-4.012-7.542 19.267 19.267 0 0 0-6.82-5.175 22.891 22.891 0 0 0-9.749-1.926 21.689 21.689 0 0 0-8.826 1.766 21.237 21.237 0 0 0-6.94 4.854 21.886 21.886 0 0 0-4.533 7.221 24.259 24.259 0 0 0-1.605 8.866v.161a23.906 23.906 0 0 0 1.725 9.223 20.336 20.336 0 0 0 4.814 7.1 22.117 22.117 0 0 0 7.342 4.573 25.823 25.823 0 0 0 9.387 1.645 23.771 23.771 0 0 0 11.113-2.407m28.684-4.332a6.524 6.524 0 0 0-6.5-6.5 6.593 6.593 0 0 0-6.58 6.5 6.609 6.609 0 0 0 6.58 6.579 6.54 6.54 0 0 0 6.5-6.579m7.943 5.7h15.324v-23.512a7.563 7.563 0 0 1 1.782-5.456 6.059 6.059 0 0 1 4.555-1.846 5.588 5.588 0 0 1 4.356 1.846 7.914 7.914 0 0 1 1.664 5.456v23.509h15.325v-28.4q0-7.461-3.913-11.714t-10.931-4.253a13.878 13.878 0 0 0-4.2.6 15.93 15.93 0 0 0-3.487 1.565 14.778 14.778 0 0 0-2.853 2.246 26.735 26.735 0 0 0-2.3 2.648v-6.1h-15.322zm63.545-25.274a11.282 11.282 0 0 1 2.568-5.737 6.4 6.4 0 0 1 4.974-2.127 6.75 6.75 0 0 1 5.135 2.127 9.651 9.651 0 0 1 2.407 5.737zm19.939 23.91a23.444 23.444 0 0 0 7.742-6.419l-8.424-6.981a16.14 16.14 0 0 1-4.614 3.37 11.932 11.932 0 0 1-5.02 1.04A10.079 10.079 0 0 1 445.848.4a8.935 8.935 0 0 1-3.33-5.376h29.045q.08-.8.08-1.6V-8.1a30.73 30.73 0 0 0-1.324-9.107 21.77 21.77 0 0 0-4.011-7.542 19.267 19.267 0 0 0-6.82-5.175 22.894 22.894 0 0 0-9.749-1.926 21.689 21.689 0 0 0-8.826 1.766 21.237 21.237 0 0 0-6.94 4.854 21.889 21.889 0 0 0-4.534 7.221 24.28 24.28 0 0 0-1.6 8.866v.161A23.906 23.906 0 0 0 429.56.241a20.337 20.337 0 0 0 4.814 7.1 22.113 22.113 0 0 0 7.341 4.573 25.832 25.832 0 0 0 9.385 1.646 23.771 23.771 0 0 0 11.113-2.407m39.114 1.564a20.9 20.9 0 0 0 4.734-1.805V-1.043A17.629 17.629 0 0 1 503.256 0a11.029 11.029 0 0 1-2.969.4 4.345 4.345 0 0 1-3.129-1 4.469 4.469 0 0 1-1.043-3.33v-14.685h10.109v-12.276h-10.109v-10.992H480.79v10.992h-5.135v12.276h5.135V-.963q0 7.783 3.871 11.073t10.808 3.29a23.527 23.527 0 0 0 5.861-.682" class="cls-1" data-name="Path 4"/>
            </g>
            <path id="Path_67" d="M17.644 0H8.965v-25.027H1.121v-7.1h24.345v7.1h-7.822zm42.2 0h-8.727v-13.1H41.032V0h-8.723v-32.124h8.723v11.909h10.085v-11.909h8.723zm28.262 0H69.034v-32.124h19.072v6.965H77.713v5.059h9.624v6.965h-9.624v6.064h10.393zm49.083-16.743q0 8.042-4.427 12.393T120.313 0H109.92v-32.124h11.118q7.734 0 11.942 3.955t4.208 11.426zm-9.009.308q0-4.417-1.747-6.548a6.46 6.46 0 0 0-5.306-2.131H118.6v18h1.934q3.955 0 5.8-2.3t1.846-7.022zM164.268 0H145.2v-32.124h19.072v6.965h-10.397v5.059h9.625v6.965h-9.624v6.064h10.393zm25.915-32.124h9.712L189.369 0h-10.217l-10.481-32.124h9.756l4.373 16.282a49.687 49.687 0 0 1 1.494 7.559q.154-1.538.615-3.845t.813-3.625zm45.053 16.018q0 8.108-3.977 12.327T219.612.439q-7.559 0-11.591-4.241T203.99-16.15q0-8.02 4.01-12.25t11.656-4.23q7.668 0 11.624 4.2t3.955 12.324zm-22.1 0q0 9.316 6.482 9.316a5.573 5.573 0 0 0 4.882-2.263q1.593-2.263 1.593-7.053 0-4.812-1.615-7.108a5.51 5.51 0 0 0-4.823-2.3q-6.525.004-6.525 9.408zm53.468-5.8q0 5.383-3.175 8.317t-9.02 2.933h-2.439V0h-8.679v-32.124H254.4q6.086 0 9.141 2.659a9.483 9.483 0 0 1 3.059 7.558zm-14.634 4.175h1.582a4.322 4.322 0 0 0 3.109-1.1 3.988 3.988 0 0 0 1.154-3.032q0-3.252-3.6-3.252h-2.241zm43.009 7.976a9.476 9.476 0 0 1-1.516 5.306 9.928 9.928 0 0 1-4.373 3.6 16.208 16.208 0 0 1-6.7 1.285A27.113 27.113 0 0 1 277-.011a19.985 19.985 0 0 1-4.526-1.571v-7.734a25.849 25.849 0 0 0 5.164 1.989 19.24 19.24 0 0 0 4.922.714 4.781 4.781 0 0 0 2.834-.67 2.06 2.06 0 0 0 .9-1.725 1.9 1.9 0 0 0-.363-1.154 4.222 4.222 0 0 0-1.165-1q-.8-.505-4.274-2.065A20.5 20.5 0 0 1 275.781-16a8.5 8.5 0 0 1-2.329-3.076 10.211 10.211 0 0 1-.758-4.109 8.235 8.235 0 0 1 3.23-6.921q3.23-2.483 8.877-2.483a24.91 24.91 0 0 1 10.173 2.307l-2.659 6.7a19.266 19.266 0 0 0-7.778-2.065 4.053 4.053 0 0 0-2.461.593 1.8 1.8 0 0 0-.769 1.472 2.126 2.126 0 0 0 .978 1.692 37.276 37.276 0 0 0 5.306 2.725 14.678 14.678 0 0 1 5.768 4.01 8.709 8.709 0 0 1 1.615 5.399zM324.677 0h-8.547v-32.124h18.984v6.965h-10.437v6.13h9.623v6.965h-9.624zm36.769 0l-1.582-6.021h-10.437L347.8 0h-9.536l10.481-32.256h11.58L370.938 0zm-3.384-13.14l-1.384-5.273q-.483-1.758-1.176-4.548t-.912-4q-.2 1.121-.78 3.691t-2.581 10.13zm32-12.327a5.535 5.535 0 0 0-4.834 2.538 12.256 12.256 0 0 0-1.736 7q0 9.272 7.053 9.272a14.445 14.445 0 0 0 4.131-.593 41.328 41.328 0 0 0 4.024-1.429v7.339a22.253 22.253 0 0 1-9.1 1.78q-7.273 0-11.151-4.219t-3.878-12.195a19.456 19.456 0 0 1 1.879-8.767 13.442 13.442 0 0 1 5.405-5.812 16.324 16.324 0 0 1 8.295-2.032 22.85 22.85 0 0 1 9.954 2.263l-2.659 6.833a29.892 29.892 0 0 0-3.56-1.406 12.44 12.44 0 0 0-3.822-.571zM421.383 0H412.7v-25.027h-7.844v-7.1h24.346v7.1h-7.822zm43.822-16.106q0 8.108-3.977 12.327T449.583.439q-7.559 0-11.591-4.241T433.96-16.15q0-8.02 4.01-12.25t11.656-4.23q7.668 0 11.624 4.2t3.955 12.324zm-22.1 0q0 9.316 6.482 9.316a5.573 5.573 0 0 0 4.889-2.263q1.593-2.263 1.593-7.053 0-4.812-1.615-7.108a5.51 5.51 0 0 0-4.823-2.3q-6.531.004-6.531 9.408zm38.834 4.417V0h-8.679v-32.124h10.525q13.1 0 13.1 9.492 0 5.581-5.449 8.635l9.36 14h-9.844l-6.812-11.689zm0-6.526h1.626q4.548 0 4.548-4.021 0-3.318-4.46-3.318h-1.714zm35.495-2l5.537-11.909h9.4L521.8-12.546V0h-8.745v-12.283l-10.567-19.841h9.448z" class="cls-1" data-name="Path 67" transform="translate(497.216 371.344)"/>
        </g>
    </g>
</svg>
